<?xml version="1.0" standalone="no"?>
<!DOCTYPE svg PUBLIC "-//W3C//DTD SVG 20010904//EN"
 "http://www.w3.org/TR/2001/REC-SVG-20010904/DTD/svg10.dtd">
<svg version="1.0" xmlns="http://www.w3.org/2000/svg"
 width="512.000000pt" height="512.000000pt" viewBox="0 0 512.000000 512.000000"
 preserveAspectRatio="xMidYMid meet">

<g transform="translate(0.000000,512.000000) scale(0.100000,-0.100000)"
fill="#000000" stroke="none">
<path d="M3089 5051 c-161 -167 -276 -400 -314 -635 -18 -110 -19 -196 -3
-322 l11 -96 -383 -383 -382 -383 -92 44 c-134 63 -226 84 -391 91 -285 12
-509 -48 -724 -192 -246 -165 -307 -347 -214 -635 61 -187 266 -508 492 -768
50 -58 54 -65 42 -85 -8 -11 -261 -358 -563 -771 -303 -412 -555 -760 -560
-772 -15 -32 -2 -87 26 -113 29 -27 85 -37 116 -21 12 6 358 258 769 559 410
301 755 554 767 561 19 11 31 4 145 -92 499 -417 877 -565 1128 -440 130 65
276 264 345 472 45 137 59 225 60 385 1 206 -26 342 -97 498 l-31 68 385 384
384 384 40 -9 c130 -31 334 -22 494 22 200 55 418 181 540 314 l44 47 -6 96
c-22 380 -248 774 -694 1212 -314 308 -584 492 -857 585 -96 33 -264 64 -344
64 l-67 0 -66 -69z m-1670 -3635 l123 -123 -433 -318 c-239 -175 -450 -330
-469 -344 l-35 -26 26 35 c14 19 169 230 343 468 174 237 318 432 319 432 1 0
58 -56 126 -124z"/>
</g>
</svg>
